<mxfile host="app.diagrams.net" modified="2021-03-08T02:29:38.102Z" agent="5.0 (Windows NT 10.0; Win64; x64) AppleWebKit/537.36 (KHTML, like Gecko) Chrome/88.0.4324.190 Safari/537.36" etag="5OTZJMeltNOwbwM-EITf" version="14.4.3" type="github">
  <diagram id="6a731a19-8d31-9384-78a2-239565b7b9f0" name="Page-1">
    <mxGraphModel dx="1447" dy="803" grid="1" gridSize="10" guides="1" tooltips="1" connect="1" arrows="1" fold="1" page="1" pageScale="1" pageWidth="827" pageHeight="1169" background="#ffffff" math="0" shadow="0">
      <root>
        <mxCell id="0" />
        <mxCell id="1" parent="0" />
        <mxCell id="2093" value="" style="rounded=1;whiteSpace=wrap;html=1;strokeColor=none;fillColor=#BAC8D3;fontSize=24;fontColor=#23445D;align=center;opacity=60;" parent="1" vertex="1">
          <mxGeometry x="55" y="589" width="290" height="461" as="geometry" />
        </mxCell>
        <mxCell id="2095" value="" style="rounded=1;whiteSpace=wrap;html=1;strokeColor=none;fillColor=#BAC8D3;fontSize=24;fontColor=#23445D;align=center;opacity=60;" parent="1" vertex="1">
          <mxGeometry x="69" y="80" width="690" height="200" as="geometry" />
        </mxCell>
        <mxCell id="2096" value="" style="shape=mxgraph.cisco.computers_and_peripherals.workstation;html=1;dashed=0;fillColor=#10739E;strokeColor=#ffffff;strokeWidth=2;verticalLabelPosition=bottom;verticalAlign=top;fontFamily=Helvetica;fontSize=36;fontColor=#FFB366" parent="1" vertex="1">
          <mxGeometry x="74" y="601" width="83" height="62" as="geometry" />
        </mxCell>
        <mxCell id="2097" value="" style="shape=mxgraph.cisco.servers.fileserver;html=1;dashed=0;fillColor=#10739E;strokeColor=#ffffff;strokeWidth=2;verticalLabelPosition=bottom;verticalAlign=top;fontFamily=Helvetica;fontSize=36;fontColor=#FFB366" parent="1" vertex="1">
          <mxGeometry x="217" y="144" width="43" height="62" as="geometry" />
        </mxCell>
        <mxCell id="2098" value="" style="shape=mxgraph.cisco.servers.fileserver;html=1;dashed=0;fillColor=#10739E;strokeColor=#ffffff;strokeWidth=2;verticalLabelPosition=bottom;verticalAlign=top;fontFamily=Helvetica;fontSize=36;fontColor=#FFB366" parent="1" vertex="1">
          <mxGeometry x="421" y="144" width="43" height="62" as="geometry" />
        </mxCell>
        <mxCell id="2099" value="" style="shape=mxgraph.cisco.servers.file_server;html=1;dashed=0;fillColor=#10739E;strokeColor=#ffffff;strokeWidth=2;verticalLabelPosition=bottom;verticalAlign=top;fontFamily=Helvetica;fontSize=36;fontColor=#FFB366" parent="1" vertex="1">
          <mxGeometry x="355" y="149" width="43" height="58" as="geometry" />
        </mxCell>
        <mxCell id="2100" value="" style="shape=mxgraph.cisco.servers.storage_server;html=1;dashed=0;fillColor=#10739E;strokeColor=#ffffff;strokeWidth=2;verticalLabelPosition=bottom;verticalAlign=top;fontFamily=Helvetica;fontSize=36;fontColor=#FFB366" parent="1" vertex="1">
          <mxGeometry x="279" y="123" width="54" height="83" as="geometry" />
        </mxCell>
        <mxCell id="2101" value="" style="shape=mxgraph.cisco.computers_and_peripherals.ibm_mini_as400;html=1;dashed=0;fillColor=#10739E;strokeColor=#ffffff;strokeWidth=2;verticalLabelPosition=bottom;verticalAlign=top;fontFamily=Helvetica;fontSize=36;fontColor=#FFB366" parent="1" vertex="1">
          <mxGeometry x="478" y="145" width="43" height="62" as="geometry" />
        </mxCell>
        <mxCell id="2102" value="" style="shape=mxgraph.cisco.computers_and_peripherals.ibm_mainframe;html=1;dashed=0;fillColor=#10739E;strokeColor=#ffffff;strokeWidth=2;verticalLabelPosition=bottom;verticalAlign=top;fontFamily=Helvetica;fontSize=36;fontColor=#FFB366" parent="1" vertex="1">
          <mxGeometry x="547" y="137" width="50" height="70" as="geometry" />
        </mxCell>
        <mxCell id="2107" value="" style="shape=mxgraph.cisco.switches.workgroup_switch;html=1;dashed=0;fillColor=#10739E;strokeColor=#ffffff;strokeWidth=2;verticalLabelPosition=bottom;verticalAlign=top;fontFamily=Helvetica;fontSize=36;fontColor=#FFB366" parent="1" vertex="1">
          <mxGeometry x="363" y="320" width="101" height="50" as="geometry" />
        </mxCell>
        <mxCell id="2114" value="" style="shape=mxgraph.cisco.switches.workgroup_switch;html=1;dashed=0;fillColor=#10739E;strokeColor=#ffffff;strokeWidth=2;verticalLabelPosition=bottom;verticalAlign=top;fontFamily=Helvetica;fontSize=36;fontColor=#FFB366" parent="1" vertex="1">
          <mxGeometry x="153.5" y="524" width="101" height="50" as="geometry" />
        </mxCell>
        <mxCell id="2152" value="" style="line;html=1;strokeColor=#23445D;" parent="1" vertex="1">
          <mxGeometry x="199" y="255" width="400" height="10" as="geometry" />
        </mxCell>
        <mxCell id="2155" value="" style="edgeStyle=elbowEdgeStyle;elbow=horizontal;endArrow=none;html=1;strokeColor=#23445D;endFill=0;strokeWidth=4;rounded=1" parent="1" target="2102" edge="1">
          <mxGeometry width="100" height="100" relative="1" as="geometry">
            <mxPoint x="572" y="260" as="sourcePoint" />
            <mxPoint x="572" y="220" as="targetPoint" />
          </mxGeometry>
        </mxCell>
        <mxCell id="2156" value="" style="edgeStyle=elbowEdgeStyle;elbow=horizontal;endArrow=none;html=1;strokeColor=#23445D;endFill=0;strokeWidth=4;rounded=1" parent="1" target="2101" edge="1">
          <mxGeometry width="100" height="100" relative="1" as="geometry">
            <mxPoint x="499" y="260" as="sourcePoint" />
            <mxPoint x="499.33333333333337" y="206.94444444444446" as="targetPoint" />
          </mxGeometry>
        </mxCell>
        <mxCell id="2157" value="" style="edgeStyle=elbowEdgeStyle;elbow=horizontal;endArrow=none;html=1;strokeColor=#23445D;endFill=0;strokeWidth=4;rounded=1" parent="1" target="2098" edge="1">
          <mxGeometry width="100" height="100" relative="1" as="geometry">
            <mxPoint x="442" y="259" as="sourcePoint" />
            <mxPoint x="442.33333333333337" y="205.94444444444446" as="targetPoint" />
          </mxGeometry>
        </mxCell>
        <mxCell id="2158" value="" style="edgeStyle=elbowEdgeStyle;elbow=horizontal;endArrow=none;html=1;strokeColor=#23445D;endFill=0;strokeWidth=4;rounded=1" parent="1" target="2099" edge="1">
          <mxGeometry width="100" height="100" relative="1" as="geometry">
            <mxPoint x="376" y="260" as="sourcePoint" />
            <mxPoint x="376.33333333333337" y="206.94444444444446" as="targetPoint" />
          </mxGeometry>
        </mxCell>
        <mxCell id="2159" value="" style="edgeStyle=elbowEdgeStyle;elbow=horizontal;endArrow=none;html=1;strokeColor=#23445D;endFill=0;strokeWidth=4;rounded=1" parent="1" target="2100" edge="1">
          <mxGeometry width="100" height="100" relative="1" as="geometry">
            <mxPoint x="306" y="260" as="sourcePoint" />
            <mxPoint x="305.80555555555554" y="206.94444444444446" as="targetPoint" />
          </mxGeometry>
        </mxCell>
        <mxCell id="2160" value="" style="edgeStyle=elbowEdgeStyle;elbow=horizontal;endArrow=none;html=1;strokeColor=#23445D;endFill=0;strokeWidth=4;rounded=1" parent="1" target="2097" edge="1">
          <mxGeometry width="100" height="100" relative="1" as="geometry">
            <mxPoint x="238" y="260" as="sourcePoint" />
            <mxPoint x="237.80555555555554" y="206.94444444444446" as="targetPoint" />
          </mxGeometry>
        </mxCell>
        <mxCell id="2162" value="" style="edgeStyle=elbowEdgeStyle;elbow=horizontal;endArrow=none;html=1;strokeColor=#23445D;endFill=0;strokeWidth=4;rounded=1" parent="1" target="2107" edge="1">
          <mxGeometry width="100" height="100" relative="1" as="geometry">
            <mxPoint x="465" y="270" as="sourcePoint" />
            <mxPoint x="465" y="300" as="targetPoint" />
            <Array as="points">
              <mxPoint x="414" y="330" />
            </Array>
          </mxGeometry>
        </mxCell>
        <mxCell id="2172" style="edgeStyle=none;rounded=1;html=1;strokeColor=#23445D;endArrow=none;endFill=0;strokeWidth=4;exitX=0.5;exitY=0.98;exitDx=0;exitDy=0;exitPerimeter=0;" parent="1" source="2107" target="2114" edge="1">
          <mxGeometry relative="1" as="geometry" />
        </mxCell>
        <mxCell id="2180" style="edgeStyle=orthogonalEdgeStyle;rounded=1;html=1;strokeColor=#23445D;endArrow=none;endFill=0;strokeWidth=4" parent="1" source="2114" target="2096" edge="1">
          <mxGeometry relative="1" as="geometry">
            <Array as="points">
              <mxPoint x="204.5" y="619" />
            </Array>
            <mxPoint x="160.5" y="619.0000000000002" as="targetPoint" />
          </mxGeometry>
        </mxCell>
        <mxCell id="2181" style="edgeStyle=orthogonalEdgeStyle;rounded=1;html=1;strokeColor=#23445D;endArrow=none;endFill=0;strokeWidth=4" parent="1" source="2114" target="wRvLdq6J9FVIzBMBdL8p-2282" edge="1">
          <mxGeometry relative="1" as="geometry">
            <Array as="points">
              <mxPoint x="204.5" y="689" />
            </Array>
            <mxPoint x="160.5" y="689.0000000000002" as="targetPoint" />
          </mxGeometry>
        </mxCell>
        <mxCell id="2182" style="edgeStyle=orthogonalEdgeStyle;rounded=1;html=1;strokeColor=#23445D;endArrow=none;endFill=0;strokeWidth=4" parent="1" source="2114" target="wRvLdq6J9FVIzBMBdL8p-2284" edge="1">
          <mxGeometry relative="1" as="geometry">
            <Array as="points">
              <mxPoint x="204.5" y="769" />
            </Array>
            <mxPoint x="160.5" y="769.0000000000002" as="targetPoint" />
          </mxGeometry>
        </mxCell>
        <mxCell id="2183" style="edgeStyle=orthogonalEdgeStyle;rounded=1;html=1;strokeColor=#23445D;endArrow=none;endFill=0;strokeWidth=4" parent="1" source="2114" target="wRvLdq6J9FVIzBMBdL8p-2285" edge="1">
          <mxGeometry relative="1" as="geometry">
            <Array as="points">
              <mxPoint x="204.5" y="839" />
            </Array>
            <mxPoint x="160.5" y="839.0344827586207" as="targetPoint" />
          </mxGeometry>
        </mxCell>
        <mxCell id="2184" style="edgeStyle=orthogonalEdgeStyle;rounded=1;html=1;strokeColor=#23445D;endArrow=none;endFill=0;strokeWidth=4" parent="1" source="2114" target="wRvLdq6J9FVIzBMBdL8p-2289" edge="1">
          <mxGeometry relative="1" as="geometry">
            <Array as="points">
              <mxPoint x="204.5" y="632" />
            </Array>
            <mxPoint x="234.4999999999999" y="632" as="targetPoint" />
          </mxGeometry>
        </mxCell>
        <mxCell id="2185" style="edgeStyle=orthogonalEdgeStyle;rounded=1;html=1;strokeColor=#23445D;endArrow=none;endFill=0;strokeWidth=4" parent="1" source="2114" target="wRvLdq6J9FVIzBMBdL8p-2290" edge="1">
          <mxGeometry relative="1" as="geometry">
            <Array as="points">
              <mxPoint x="204.5" y="700" />
            </Array>
            <mxPoint x="234.4999999999999" y="700.0000000000001" as="targetPoint" />
          </mxGeometry>
        </mxCell>
        <mxCell id="2186" style="edgeStyle=orthogonalEdgeStyle;rounded=1;html=1;strokeColor=#23445D;endArrow=none;endFill=0;strokeWidth=4" parent="1" source="2114" target="wRvLdq6J9FVIzBMBdL8p-2292" edge="1">
          <mxGeometry relative="1" as="geometry">
            <Array as="points">
              <mxPoint x="204.5" y="782" />
            </Array>
            <mxPoint x="234.4999999999999" y="782" as="targetPoint" />
          </mxGeometry>
        </mxCell>
        <mxCell id="2187" style="edgeStyle=orthogonalEdgeStyle;rounded=1;html=1;strokeColor=#23445D;endArrow=none;endFill=0;strokeWidth=4" parent="1" source="2114" target="wRvLdq6J9FVIzBMBdL8p-2293" edge="1">
          <mxGeometry relative="1" as="geometry">
            <Array as="points">
              <mxPoint x="204.5" y="859" />
            </Array>
            <mxPoint x="234.4999999999999" y="859.0344827586207" as="targetPoint" />
          </mxGeometry>
        </mxCell>
        <mxCell id="2209" style="edgeStyle=orthogonalEdgeStyle;rounded=1;html=1;strokeColor=#23445D;endArrow=none;endFill=0;strokeWidth=4" parent="1" source="2114" target="wRvLdq6J9FVIzBMBdL8p-2287" edge="1">
          <mxGeometry relative="1" as="geometry">
            <Array as="points">
              <mxPoint x="204.5" y="919" />
            </Array>
            <mxPoint x="160.5" y="919.0344827586207" as="targetPoint" />
          </mxGeometry>
        </mxCell>
        <mxCell id="2211" style="edgeStyle=orthogonalEdgeStyle;rounded=1;html=1;strokeColor=#23445D;endArrow=none;endFill=0;strokeWidth=4" parent="1" source="2114" target="wRvLdq6J9FVIzBMBdL8p-2294" edge="1">
          <mxGeometry relative="1" as="geometry">
            <Array as="points">
              <mxPoint x="204.5" y="929" />
            </Array>
            <mxPoint x="234.4999999999999" y="929.0344827586207" as="targetPoint" />
          </mxGeometry>
        </mxCell>
        <mxCell id="2226" value="&lt;font color=&quot;#23445d&quot;&gt;Management and core servers&lt;/font&gt;" style="rounded=1;whiteSpace=wrap;html=1;strokeColor=none;fillColor=none;fontSize=14;fontColor=#742B21;align=center;fontStyle=1" parent="1" vertex="1">
          <mxGeometry x="302" y="92" width="225" height="19" as="geometry" />
        </mxCell>
        <mxCell id="2233" value="Zona Administrativa" style="rounded=1;whiteSpace=wrap;html=1;strokeColor=none;fillColor=none;fontSize=14;fontColor=#23445D;align=center;fontStyle=1" parent="1" vertex="1">
          <mxGeometry x="153.5" y="1000" width="93" height="19" as="geometry" />
        </mxCell>
        <mxCell id="wRvLdq6J9FVIzBMBdL8p-2282" value="" style="shape=mxgraph.cisco.computers_and_peripherals.workstation;html=1;dashed=0;fillColor=#10739E;strokeColor=#ffffff;strokeWidth=2;verticalLabelPosition=bottom;verticalAlign=top;fontFamily=Helvetica;fontSize=36;fontColor=#FFB366" vertex="1" parent="1">
          <mxGeometry x="70.5" y="675" width="83" height="62" as="geometry" />
        </mxCell>
        <mxCell id="wRvLdq6J9FVIzBMBdL8p-2284" value="" style="shape=mxgraph.cisco.computers_and_peripherals.workstation;html=1;dashed=0;fillColor=#10739E;strokeColor=#ffffff;strokeWidth=2;verticalLabelPosition=bottom;verticalAlign=top;fontFamily=Helvetica;fontSize=36;fontColor=#FFB366" vertex="1" parent="1">
          <mxGeometry x="70.5" y="751" width="83" height="62" as="geometry" />
        </mxCell>
        <mxCell id="wRvLdq6J9FVIzBMBdL8p-2285" value="" style="shape=mxgraph.cisco.computers_and_peripherals.workstation;html=1;dashed=0;fillColor=#10739E;strokeColor=#ffffff;strokeWidth=2;verticalLabelPosition=bottom;verticalAlign=top;fontFamily=Helvetica;fontSize=36;fontColor=#FFB366" vertex="1" parent="1">
          <mxGeometry x="70.5" y="825" width="83" height="62" as="geometry" />
        </mxCell>
        <mxCell id="wRvLdq6J9FVIzBMBdL8p-2287" value="" style="shape=mxgraph.cisco.computers_and_peripherals.workstation;html=1;dashed=0;fillColor=#10739E;strokeColor=#ffffff;strokeWidth=2;verticalLabelPosition=bottom;verticalAlign=top;fontFamily=Helvetica;fontSize=36;fontColor=#FFB366" vertex="1" parent="1">
          <mxGeometry x="70.5" y="901" width="83" height="62" as="geometry" />
        </mxCell>
        <mxCell id="wRvLdq6J9FVIzBMBdL8p-2288" style="edgeStyle=none;rounded=1;html=1;strokeColor=#23445D;endArrow=none;endFill=0;strokeWidth=4;exitX=0.5;exitY=0.98;exitDx=0;exitDy=0;exitPerimeter=0;entryX=0.34;entryY=0.011;entryDx=0;entryDy=0;entryPerimeter=0;" edge="1" parent="1" source="2107" target="wRvLdq6J9FVIzBMBdL8p-2298">
          <mxGeometry relative="1" as="geometry">
            <mxPoint x="444.1886792452831" y="372" as="sourcePoint" />
            <mxPoint x="616.1600000000001" y="535.4999999999998" as="targetPoint" />
          </mxGeometry>
        </mxCell>
        <mxCell id="wRvLdq6J9FVIzBMBdL8p-2289" value="" style="shape=mxgraph.cisco.computers_and_peripherals.workstation;html=1;dashed=0;fillColor=#10739E;strokeColor=#ffffff;strokeWidth=2;verticalLabelPosition=bottom;verticalAlign=top;fontFamily=Helvetica;fontSize=36;fontColor=#FFB366" vertex="1" parent="1">
          <mxGeometry x="237" y="601" width="83" height="62" as="geometry" />
        </mxCell>
        <mxCell id="wRvLdq6J9FVIzBMBdL8p-2290" value="" style="shape=mxgraph.cisco.computers_and_peripherals.workstation;html=1;dashed=0;fillColor=#10739E;strokeColor=#ffffff;strokeWidth=2;verticalLabelPosition=bottom;verticalAlign=top;fontFamily=Helvetica;fontSize=36;fontColor=#FFB366" vertex="1" parent="1">
          <mxGeometry x="237" y="675" width="83" height="62" as="geometry" />
        </mxCell>
        <mxCell id="wRvLdq6J9FVIzBMBdL8p-2292" value="" style="shape=mxgraph.cisco.computers_and_peripherals.workstation;html=1;dashed=0;fillColor=#10739E;strokeColor=#ffffff;strokeWidth=2;verticalLabelPosition=bottom;verticalAlign=top;fontFamily=Helvetica;fontSize=36;fontColor=#FFB366" vertex="1" parent="1">
          <mxGeometry x="237" y="751" width="83" height="62" as="geometry" />
        </mxCell>
        <mxCell id="wRvLdq6J9FVIzBMBdL8p-2293" value="" style="shape=mxgraph.cisco.computers_and_peripherals.workstation;html=1;dashed=0;fillColor=#10739E;strokeColor=#ffffff;strokeWidth=2;verticalLabelPosition=bottom;verticalAlign=top;fontFamily=Helvetica;fontSize=36;fontColor=#FFB366" vertex="1" parent="1">
          <mxGeometry x="237" y="830" width="83" height="62" as="geometry" />
        </mxCell>
        <mxCell id="wRvLdq6J9FVIzBMBdL8p-2294" value="" style="shape=mxgraph.cisco.computers_and_peripherals.workstation;html=1;dashed=0;fillColor=#10739E;strokeColor=#ffffff;strokeWidth=2;verticalLabelPosition=bottom;verticalAlign=top;fontFamily=Helvetica;fontSize=36;fontColor=#FFB366" vertex="1" parent="1">
          <mxGeometry x="237" y="910" width="83" height="62" as="geometry" />
        </mxCell>
        <mxCell id="wRvLdq6J9FVIzBMBdL8p-2296" value="" style="rounded=1;whiteSpace=wrap;html=1;strokeColor=none;fillColor=#BAC8D3;fontSize=24;fontColor=#23445D;align=center;opacity=60;" vertex="1" parent="1">
          <mxGeometry x="481.5" y="584" width="290" height="461" as="geometry" />
        </mxCell>
        <mxCell id="wRvLdq6J9FVIzBMBdL8p-2297" value="" style="shape=mxgraph.cisco.computers_and_peripherals.workstation;html=1;dashed=0;fillColor=#10739E;strokeColor=#ffffff;strokeWidth=2;verticalLabelPosition=bottom;verticalAlign=top;fontFamily=Helvetica;fontSize=36;fontColor=#FFB366" vertex="1" parent="1">
          <mxGeometry x="500.5" y="596" width="83" height="62" as="geometry" />
        </mxCell>
        <mxCell id="wRvLdq6J9FVIzBMBdL8p-2298" value="" style="shape=mxgraph.cisco.switches.workgroup_switch;html=1;dashed=0;fillColor=#10739E;strokeColor=#ffffff;strokeWidth=2;verticalLabelPosition=bottom;verticalAlign=top;fontFamily=Helvetica;fontSize=36;fontColor=#FFB366" vertex="1" parent="1">
          <mxGeometry x="580" y="519" width="101" height="50" as="geometry" />
        </mxCell>
        <mxCell id="wRvLdq6J9FVIzBMBdL8p-2299" style="edgeStyle=orthogonalEdgeStyle;rounded=1;html=1;strokeColor=#23445D;endArrow=none;endFill=0;strokeWidth=4" edge="1" parent="1" source="wRvLdq6J9FVIzBMBdL8p-2298" target="wRvLdq6J9FVIzBMBdL8p-2297">
          <mxGeometry relative="1" as="geometry">
            <Array as="points">
              <mxPoint x="631" y="614" />
            </Array>
            <mxPoint x="587" y="614.0000000000002" as="targetPoint" />
          </mxGeometry>
        </mxCell>
        <mxCell id="wRvLdq6J9FVIzBMBdL8p-2300" style="edgeStyle=orthogonalEdgeStyle;rounded=1;html=1;strokeColor=#23445D;endArrow=none;endFill=0;strokeWidth=4" edge="1" parent="1" source="wRvLdq6J9FVIzBMBdL8p-2298" target="wRvLdq6J9FVIzBMBdL8p-2310">
          <mxGeometry relative="1" as="geometry">
            <Array as="points">
              <mxPoint x="631" y="684" />
            </Array>
            <mxPoint x="587" y="684.0000000000002" as="targetPoint" />
          </mxGeometry>
        </mxCell>
        <mxCell id="wRvLdq6J9FVIzBMBdL8p-2301" style="edgeStyle=orthogonalEdgeStyle;rounded=1;html=1;strokeColor=#23445D;endArrow=none;endFill=0;strokeWidth=4" edge="1" parent="1" source="wRvLdq6J9FVIzBMBdL8p-2298" target="wRvLdq6J9FVIzBMBdL8p-2311">
          <mxGeometry relative="1" as="geometry">
            <Array as="points">
              <mxPoint x="631" y="764" />
            </Array>
            <mxPoint x="587" y="764.0000000000002" as="targetPoint" />
          </mxGeometry>
        </mxCell>
        <mxCell id="wRvLdq6J9FVIzBMBdL8p-2302" style="edgeStyle=orthogonalEdgeStyle;rounded=1;html=1;strokeColor=#23445D;endArrow=none;endFill=0;strokeWidth=4" edge="1" parent="1" source="wRvLdq6J9FVIzBMBdL8p-2298" target="wRvLdq6J9FVIzBMBdL8p-2312">
          <mxGeometry relative="1" as="geometry">
            <Array as="points">
              <mxPoint x="631" y="834" />
            </Array>
            <mxPoint x="587" y="834.0344827586207" as="targetPoint" />
          </mxGeometry>
        </mxCell>
        <mxCell id="wRvLdq6J9FVIzBMBdL8p-2303" style="edgeStyle=orthogonalEdgeStyle;rounded=1;html=1;strokeColor=#23445D;endArrow=none;endFill=0;strokeWidth=4" edge="1" parent="1" source="wRvLdq6J9FVIzBMBdL8p-2298" target="wRvLdq6J9FVIzBMBdL8p-2314">
          <mxGeometry relative="1" as="geometry">
            <Array as="points">
              <mxPoint x="631" y="627" />
            </Array>
            <mxPoint x="660.9999999999999" y="627" as="targetPoint" />
          </mxGeometry>
        </mxCell>
        <mxCell id="wRvLdq6J9FVIzBMBdL8p-2304" style="edgeStyle=orthogonalEdgeStyle;rounded=1;html=1;strokeColor=#23445D;endArrow=none;endFill=0;strokeWidth=4" edge="1" parent="1" source="wRvLdq6J9FVIzBMBdL8p-2298" target="wRvLdq6J9FVIzBMBdL8p-2315">
          <mxGeometry relative="1" as="geometry">
            <Array as="points">
              <mxPoint x="631" y="695" />
            </Array>
            <mxPoint x="660.9999999999999" y="695.0000000000001" as="targetPoint" />
          </mxGeometry>
        </mxCell>
        <mxCell id="wRvLdq6J9FVIzBMBdL8p-2305" style="edgeStyle=orthogonalEdgeStyle;rounded=1;html=1;strokeColor=#23445D;endArrow=none;endFill=0;strokeWidth=4" edge="1" parent="1" source="wRvLdq6J9FVIzBMBdL8p-2298" target="wRvLdq6J9FVIzBMBdL8p-2316">
          <mxGeometry relative="1" as="geometry">
            <Array as="points">
              <mxPoint x="631" y="777" />
            </Array>
            <mxPoint x="660.9999999999999" y="777" as="targetPoint" />
          </mxGeometry>
        </mxCell>
        <mxCell id="wRvLdq6J9FVIzBMBdL8p-2306" style="edgeStyle=orthogonalEdgeStyle;rounded=1;html=1;strokeColor=#23445D;endArrow=none;endFill=0;strokeWidth=4" edge="1" parent="1" source="wRvLdq6J9FVIzBMBdL8p-2298" target="wRvLdq6J9FVIzBMBdL8p-2317">
          <mxGeometry relative="1" as="geometry">
            <Array as="points">
              <mxPoint x="631" y="854" />
            </Array>
            <mxPoint x="660.9999999999999" y="854.0344827586207" as="targetPoint" />
          </mxGeometry>
        </mxCell>
        <mxCell id="wRvLdq6J9FVIzBMBdL8p-2307" style="edgeStyle=orthogonalEdgeStyle;rounded=1;html=1;strokeColor=#23445D;endArrow=none;endFill=0;strokeWidth=4" edge="1" parent="1" source="wRvLdq6J9FVIzBMBdL8p-2298" target="wRvLdq6J9FVIzBMBdL8p-2313">
          <mxGeometry relative="1" as="geometry">
            <Array as="points">
              <mxPoint x="631" y="914" />
            </Array>
            <mxPoint x="587" y="914.0344827586207" as="targetPoint" />
          </mxGeometry>
        </mxCell>
        <mxCell id="wRvLdq6J9FVIzBMBdL8p-2308" style="edgeStyle=orthogonalEdgeStyle;rounded=1;html=1;strokeColor=#23445D;endArrow=none;endFill=0;strokeWidth=4" edge="1" parent="1" source="wRvLdq6J9FVIzBMBdL8p-2298" target="wRvLdq6J9FVIzBMBdL8p-2318">
          <mxGeometry relative="1" as="geometry">
            <Array as="points">
              <mxPoint x="631" y="924" />
            </Array>
            <mxPoint x="660.9999999999999" y="924.0344827586207" as="targetPoint" />
          </mxGeometry>
        </mxCell>
        <mxCell id="wRvLdq6J9FVIzBMBdL8p-2309" value="Zona de Trabajo" style="rounded=1;whiteSpace=wrap;html=1;strokeColor=none;fillColor=none;fontSize=14;fontColor=#23445D;align=center;fontStyle=1" vertex="1" parent="1">
          <mxGeometry x="580" y="995" width="93" height="19" as="geometry" />
        </mxCell>
        <mxCell id="wRvLdq6J9FVIzBMBdL8p-2310" value="" style="shape=mxgraph.cisco.computers_and_peripherals.workstation;html=1;dashed=0;fillColor=#10739E;strokeColor=#ffffff;strokeWidth=2;verticalLabelPosition=bottom;verticalAlign=top;fontFamily=Helvetica;fontSize=36;fontColor=#FFB366" vertex="1" parent="1">
          <mxGeometry x="497" y="670" width="83" height="62" as="geometry" />
        </mxCell>
        <mxCell id="wRvLdq6J9FVIzBMBdL8p-2311" value="" style="shape=mxgraph.cisco.computers_and_peripherals.workstation;html=1;dashed=0;fillColor=#10739E;strokeColor=#ffffff;strokeWidth=2;verticalLabelPosition=bottom;verticalAlign=top;fontFamily=Helvetica;fontSize=36;fontColor=#FFB366" vertex="1" parent="1">
          <mxGeometry x="497" y="746" width="83" height="62" as="geometry" />
        </mxCell>
        <mxCell id="wRvLdq6J9FVIzBMBdL8p-2312" value="" style="shape=mxgraph.cisco.computers_and_peripherals.workstation;html=1;dashed=0;fillColor=#10739E;strokeColor=#ffffff;strokeWidth=2;verticalLabelPosition=bottom;verticalAlign=top;fontFamily=Helvetica;fontSize=36;fontColor=#FFB366" vertex="1" parent="1">
          <mxGeometry x="497" y="820" width="83" height="62" as="geometry" />
        </mxCell>
        <mxCell id="wRvLdq6J9FVIzBMBdL8p-2313" value="" style="shape=mxgraph.cisco.computers_and_peripherals.workstation;html=1;dashed=0;fillColor=#10739E;strokeColor=#ffffff;strokeWidth=2;verticalLabelPosition=bottom;verticalAlign=top;fontFamily=Helvetica;fontSize=36;fontColor=#FFB366" vertex="1" parent="1">
          <mxGeometry x="497" y="896" width="83" height="62" as="geometry" />
        </mxCell>
        <mxCell id="wRvLdq6J9FVIzBMBdL8p-2314" value="" style="shape=mxgraph.cisco.computers_and_peripherals.workstation;html=1;dashed=0;fillColor=#10739E;strokeColor=#ffffff;strokeWidth=2;verticalLabelPosition=bottom;verticalAlign=top;fontFamily=Helvetica;fontSize=36;fontColor=#FFB366" vertex="1" parent="1">
          <mxGeometry x="663.5" y="596" width="83" height="62" as="geometry" />
        </mxCell>
        <mxCell id="wRvLdq6J9FVIzBMBdL8p-2315" value="" style="shape=mxgraph.cisco.computers_and_peripherals.workstation;html=1;dashed=0;fillColor=#10739E;strokeColor=#ffffff;strokeWidth=2;verticalLabelPosition=bottom;verticalAlign=top;fontFamily=Helvetica;fontSize=36;fontColor=#FFB366" vertex="1" parent="1">
          <mxGeometry x="663.5" y="670" width="83" height="62" as="geometry" />
        </mxCell>
        <mxCell id="wRvLdq6J9FVIzBMBdL8p-2316" value="" style="shape=mxgraph.cisco.computers_and_peripherals.workstation;html=1;dashed=0;fillColor=#10739E;strokeColor=#ffffff;strokeWidth=2;verticalLabelPosition=bottom;verticalAlign=top;fontFamily=Helvetica;fontSize=36;fontColor=#FFB366" vertex="1" parent="1">
          <mxGeometry x="663.5" y="746" width="83" height="62" as="geometry" />
        </mxCell>
        <mxCell id="wRvLdq6J9FVIzBMBdL8p-2317" value="" style="shape=mxgraph.cisco.computers_and_peripherals.workstation;html=1;dashed=0;fillColor=#10739E;strokeColor=#ffffff;strokeWidth=2;verticalLabelPosition=bottom;verticalAlign=top;fontFamily=Helvetica;fontSize=36;fontColor=#FFB366" vertex="1" parent="1">
          <mxGeometry x="663.5" y="825" width="83" height="62" as="geometry" />
        </mxCell>
        <mxCell id="wRvLdq6J9FVIzBMBdL8p-2318" value="" style="shape=mxgraph.cisco.computers_and_peripherals.workstation;html=1;dashed=0;fillColor=#10739E;strokeColor=#ffffff;strokeWidth=2;verticalLabelPosition=bottom;verticalAlign=top;fontFamily=Helvetica;fontSize=36;fontColor=#FFB366" vertex="1" parent="1">
          <mxGeometry x="663.5" y="905" width="83" height="62" as="geometry" />
        </mxCell>
      </root>
    </mxGraphModel>
  </diagram>
</mxfile>
